# xmcd
#
# Track frame offsets:
#	150
#	14426
#	29994
#	48892
#	68467
#	84049
#	102169
#	117153
#	132724
#	145180
#	160645
#	175344
#	191836
#
# Disc length: 2827 seconds
#
# Revision: 0
# Processed by: cddbd v1.5.2PL0 Copyright (c) Steve Scherf et al.
# Submitted via: EasyCDDAExtractor 2010.6.0.0
#
DISCID=ac0b090d
DTITLE=Murphy Brothers - Seekers' haven [2004]
DYEAR=2004
DGENRE=Country
TTITLE0=She still shines
TTITLE1=Turn my life around
TTITLE2=Free 
TTITLE3=Without you
TTITLE4=Mary Ann
TTITLE5=Even if
TTITLE6=Seeker's haven
TTITLE7=When the night calls
TTITLE8=Picking up the pieces
TTITLE9=All the things
TTITLE10=The game
TTITLE11=Crucified by love
TTITLE12=Boy's story
EXTD=
EXTT0=
EXTT1=
EXTT2=
EXTT3=
EXTT4=
EXTT5=
EXTT6=
EXTT7=
EXTT8=
EXTT9=
EXTT10=
EXTT11=
EXTT12=
PLAYORDER=
